<svg version="1.1" id="Layer_1" xmlns="http://www.w3.org/2000/svg" xmlns:xlink="http://www.w3.org/1999/xlink" x="0px" y="0px"
	 width="100%" viewBox="0 0 816 624" enable-background="new 0 0 816 624" xml:space="preserve">
<path fill="#000000" opacity="1.000000" stroke="none" 
	d="
M265.851105,216.850342 
	C240.043533,242.071609 211.477142,262.894135 179.759735,279.376984 
	C174.551636,282.083527 169.083710,284.084442 163.337387,285.197144 
	C161.071976,285.635803 158.332458,285.850861 157.533142,282.835480 
	C156.774231,279.972595 158.821960,278.478516 161.203461,277.794159 
	C180.483215,272.254059 196.324997,260.406708 212.707535,249.625122 
	C245.069885,228.327026 271.972961,201.268723 295.508087,170.653976 
	C301.591187,162.740982 308.053558,155.089615 315.262604,148.119400 
	C328.260101,135.552505 339.969421,135.640060 352.464752,148.727966 
	C362.861176,159.617386 370.986053,172.286179 379.818878,184.393646 
	C385.120667,191.660995 390.460846,198.906052 395.537109,206.329788 
	C398.025879,209.969543 400.230072,210.261475 403.565552,207.390518 
	C418.246216,194.754272 432.112854,181.352570 444.091736,166.062393 
	C450.050018,158.457001 456.102692,150.903656 462.973022,144.082474 
	C473.617554,133.514114 482.478485,133.238724 493.007629,144.215393 
	C504.416931,156.109604 515.630615,168.272369 525.982361,181.083435 
	C548.382629,208.805359 574.034973,232.810577 604.151367,251.890244 
	C619.943787,261.895172 636.679993,270.126373 654.203491,276.720673 
	C656.181824,277.465149 659.642029,277.664917 658.448669,280.962830 
	C657.435608,283.762390 654.624573,284.212402 651.663269,283.476532 
	C644.021851,281.577728 636.777039,278.588989 629.686157,275.298401 
	C603.813843,263.292084 580.572998,247.321854 559.030701,228.663315 
	C541.035583,213.077164 526.444824,194.426941 510.763519,176.742477 
	C502.809967,167.772919 495.237946,158.455475 486.620178,150.085587 
	C479.375885,143.049667 475.700897,142.921494 468.596497,150.270782 
	C459.438110,159.744858 451.966522,170.660934 443.319458,180.576752 
	C433.119354,192.273575 421.882660,202.941650 410.213501,213.155228 
	C405.461517,217.314423 405.171204,218.400375 409.470764,222.729813 
	C425.694000,239.065857 443.234253,253.488754 465.813385,260.328156 
	C468.490814,261.139160 471.395477,262.250336 470.175293,265.690582 
	C469.081055,268.775665 466.158142,268.551880 463.351624,267.827301 
	C445.314697,263.170471 430.336670,253.258301 416.458740,241.193314 
	C396.085541,223.481506 381.003510,201.525757 366.131683,179.384171 
	C360.259644,170.641663 353.634644,162.510361 346.637604,154.691605 
	C337.921265,144.951599 331.671356,144.486145 321.941895,153.309662 
	C312.413300,161.951065 305.113953,172.636368 296.779480,182.374390 
	C286.813049,194.019211 276.836426,205.647659 265.851105,216.850342 
z"/>
<path fill="#000000" opacity="1.000000" stroke="none" 
	d="
M373.843262,366.559387 
	C378.790314,393.462433 368.082916,412.792603 346.134216,426.741302 
	C348.523376,432.899750 348.523376,432.899750 345.208313,435.526733 
	C347.296082,444.977081 346.225250,448.501617 340.656189,450.431976 
	C338.931824,448.791595 340.374573,447.468872 341.068695,446.033997 
	C343.652893,440.692261 342.290558,436.936676 336.822021,434.205597 
	C334.486359,433.039093 334.491516,432.650299 337.078613,426.637726 
	C334.300476,424.799957 331.389648,423.005096 328.616302,421.018372 
	C312.385590,409.391144 304.032745,387.082367 308.573700,367.636810 
	C312.575562,350.499573 324.011292,340.875732 341.261475,340.128021 
	C355.968628,339.490540 368.903076,349.871216 373.843262,366.559387 
M359.877838,363.744690 
	C361.102173,365.614929 360.992981,368.339020 363.533539,369.938660 
	C362.879974,360.953796 357.156860,354.193451 349.523041,353.817108 
	C353.673584,356.676910 357.702972,358.796692 359.877838,363.744690 
z"/>
<path fill="#000000" opacity="1.000000" stroke="none" 
	d="
M492.513489,422.871826 
	C491.016846,421.212524 491.108795,419.515259 491.120178,417.858978 
	C491.283905,394.053253 491.460571,370.247589 491.648163,346.442078 
	C491.653290,345.794708 491.815430,345.148590 491.896637,344.557953 
	C499.122253,342.373688 501.302124,343.123901 505.579163,348.699615 
	C517.737610,364.549866 529.952637,380.356812 542.169128,396.162384 
	C542.948425,397.170593 543.577942,398.452515 546.082581,398.726776 
	C546.082581,395.077789 546.084045,391.513428 546.082336,387.949066 
	C546.076233,375.127899 546.144714,362.305939 546.017212,349.485992 
	C545.977844,345.529907 546.783142,343.463135 551.518005,343.471130 
	C556.230469,343.479065 557.462463,345.123901 557.431885,349.557373 
	C557.276794,372.035645 557.403076,394.515808 557.317688,416.994873 
	C557.309692,419.104034 558.569763,422.353546 555.481873,422.992645 
	C552.254150,423.660675 548.567688,424.496399 545.845520,421.022308 
	C539.274475,412.635986 532.529297,404.386200 525.946350,396.009033 
	C519.466125,387.762695 513.112671,379.416901 506.667114,371.143097 
	C505.778137,370.001984 505.139038,368.519745 502.428986,367.943848 
	C502.428986,372.656311 502.195404,377.181793 502.474335,381.675476 
	C503.207642,393.489960 502.639374,405.314178 502.995911,417.122375 
	C503.138397,421.840759 501.811890,424.066833 496.884460,423.355591 
	C495.574097,423.166473 494.234985,423.176819 492.513489,422.871826 
z"/>
<path fill="#000000" opacity="1.000000" stroke="none" 
	d="
M218.050629,345.254364 
	C218.235565,354.716125 218.476822,363.718414 218.248642,372.708801 
	C218.140396,376.973999 219.781616,378.199066 223.795258,378.119934 
	C233.957596,377.919556 244.130142,377.847839 254.289978,378.088196 
	C258.757080,378.193909 260.110535,376.497101 259.980133,372.230530 
	C259.735840,364.238525 260.095398,356.227600 259.831421,348.236877 
	C259.666138,343.232422 262.766418,343.531128 266.052795,343.615631 
	C269.141449,343.695068 272.426910,342.831909 272.389648,348.041046 
	C272.221558,371.538147 272.218689,395.038055 272.407837,418.534912 
	C272.446716,423.369781 269.818512,423.406494 266.369843,423.372650 
	C262.895416,423.338562 259.654694,423.739746 259.820892,418.487183 
	C260.094788,409.829559 259.791534,401.154785 259.985474,392.492950 
	C260.072723,388.596649 258.659760,387.232635 254.737167,387.309174 
	C244.241959,387.514038 233.738251,387.482666 223.241699,387.312164 
	C219.604507,387.253082 218.185150,388.425171 218.270996,392.184357 
	C218.472626,401.012482 218.142670,409.854279 218.414429,418.678650 
	C218.567566,423.651031 215.562531,423.365784 212.244934,423.374329 
	C208.926437,423.382843 205.943604,423.662262 205.972549,418.733398 
	C206.109558,395.402740 206.078613,372.070679 205.993729,348.739532 
	C205.979843,344.922058 207.315170,343.063354 211.267929,343.633636 
	C213.494186,343.954865 215.971817,342.839264 218.050629,345.254364 
z"/>
<path fill="#000000" opacity="1.000000" stroke="none" 
	d="
M641.344727,358.611877 
	C638.103088,353.854828 635.076233,349.387329 631.911743,344.716675 
	C641.771362,341.909424 645.446533,343.026489 650.393616,350.122162 
	C655.323608,357.193298 660.125244,364.353912 665.562805,372.325012 
	C670.129211,365.766144 674.163025,359.978638 678.188721,354.185516 
	C679.139343,352.817505 680.034302,351.410278 681.003540,350.055878 
	C685.990173,343.087341 689.758667,341.889954 699.141052,344.572723 
	C694.844116,350.832245 690.646729,356.965363 686.429321,363.084686 
	C682.742432,368.434143 679.155823,373.859619 675.275452,379.065643 
	C673.631165,381.271820 674.056580,382.673126 675.524658,384.715881 
	C683.691772,396.080017 691.698914,407.559235 699.745117,419.010132 
	C700.484985,420.063049 701.575012,421.024872 701.082947,422.551758 
	C691.497498,425.117065 688.257874,423.941772 683.024414,416.314484 
	C677.393555,408.108032 671.657837,399.973511 665.513489,391.155579 
	C659.288757,400.090363 653.443298,408.345032 647.745605,416.700409 
	C642.912537,423.787781 638.556519,425.253143 629.630371,422.433075 
	C629.145691,420.677673 630.535156,419.730621 631.360535,418.553284 
	C639.010193,407.641602 646.576599,396.669403 654.385681,385.872864 
	C656.468018,382.993927 656.642456,380.755127 654.565430,377.860931 
	C650.098083,371.635864 645.879761,365.232086 641.344727,358.611877 
z"/>
<path fill="#000000" opacity="1.000000" stroke="none" 
	d="
M123.798515,410.981537 
	C123.798828,390.184113 123.908829,369.881744 123.716522,349.582214 
	C123.673889,345.081635 124.954071,343.366547 129.636063,343.545654 
	C138.110474,343.869812 146.606003,343.615936 155.092499,343.654602 
	C169.304199,343.719360 178.646484,351.831451 179.383804,364.696747 
	C180.331558,381.234314 172.495209,391.415802 157.619751,393.390472 
	C152.648285,394.050385 147.702774,394.251465 142.714767,394.232910 
	C135.930862,394.207703 135.889542,394.277313 135.898621,401.280548 
	C135.906174,407.104584 135.759262,412.935394 135.995544,418.750427 
	C136.176575,423.205658 133.601318,423.534180 130.254135,423.348419 
	C127.184471,423.178040 123.523003,424.123962 123.813568,418.964172 
	C123.953636,416.476807 123.812866,413.973633 123.798515,410.981537 
M159.835556,380.548004 
	C165.700333,377.206604 167.320129,371.871338 166.430649,365.649719 
	C165.537476,359.402252 161.441223,356.313965 155.426224,355.047455 
	C149.957230,353.895966 144.489807,354.561646 139.023972,354.419220 
	C136.591751,354.355804 136.010544,356.107666 136.002045,358.128113 
	C135.972626,365.116882 135.973877,372.105804 135.960419,379.094666 
	C135.955307,381.752533 137.249756,383.149658 139.933289,383.050201 
	C146.385040,382.811157 152.943726,383.469818 159.835556,380.548004 
z"/>
<path fill="#000000" opacity="1.000000" stroke="none" 
	d="
M426.003296,423.335205 
	C423.006805,423.343506 420.509430,423.352844 418.012024,423.357788 
	C409.993683,423.373718 409.961853,423.373169 409.941284,415.602631 
	C409.883087,393.625854 409.983032,371.647400 409.712524,349.673370 
	C409.652252,344.778534 411.267731,343.440643 416.002167,343.532745 
	C429.649170,343.798248 443.311096,343.833801 456.954590,343.477600 
	C462.396271,343.335541 461.631836,346.798828 462.006836,349.972534 
	C462.488800,354.051056 460.193634,354.509674 456.826141,354.455475 
	C446.839355,354.294708 436.847046,354.500305 426.859009,354.383636 
	C422.864685,354.337006 421.018097,355.785583 421.278534,359.962982 
	C421.516418,363.777771 421.538940,367.631683 421.288208,371.444122 
	C421.031860,375.341705 422.456909,376.801178 426.418488,376.679932 
	C434.736298,376.425415 443.065369,376.558075 451.389221,376.473267 
	C454.630493,376.440247 457.226471,376.554993 457.212860,381.098480 
	C457.199921,385.419647 455.669464,387.075500 451.375793,386.987427 
	C443.388306,386.823608 435.382324,387.250977 427.407349,386.901062 
	C422.460480,386.684021 420.912109,388.521881 421.229797,393.232788 
	C421.565186,398.206207 421.542969,403.222565 421.344177,408.206879 
	C421.201202,411.791595 422.754150,412.871521 426.080414,412.833466 
	C436.568329,412.713409 447.061523,412.902161 457.545349,412.657043 
	C461.658936,412.560883 463.099640,413.960938 463.144379,418.079254 
	C463.190857,422.359711 461.430878,423.476379 457.469238,423.402344 
	C447.150116,423.209534 436.825073,423.335449 426.003296,423.335205 
z"/>
<path fill="#000000" opacity="1.000000" stroke="none" 
	d="
M602.076538,395.000000 
	C602.060059,403.321594 601.892944,411.146790 602.079468,418.963531 
	C602.201843,424.092773 598.784485,423.322693 595.662231,423.365936 
	C592.565918,423.408844 589.676697,423.682892 589.699280,418.995789 
	C589.814026,395.198425 589.770813,371.399963 589.689453,347.602234 
	C589.678955,344.528412 590.959717,343.656769 593.863403,343.565186 
	C601.904785,343.311493 601.977722,343.201263 602.017029,351.064911 
	C602.089294,365.542999 602.061951,380.021606 602.076538,395.000000 
z"/>
<path fill="#000000" opacity="1.000000" stroke="none" 
	d="
M359.581970,462.193726 
	C368.699860,460.010193 376.881348,461.079254 382.567291,468.478668 
	C387.997223,475.544830 389.860474,483.726715 385.977875,492.399658 
	C380.951477,503.627777 368.693176,508.234131 356.623383,503.468292 
	C346.763031,499.574799 341.644196,486.550751 345.558716,475.663483 
	C347.968781,468.960541 352.078369,464.142548 359.581970,462.193726 
M352.253357,481.770142 
	C352.290619,483.264740 352.200104,484.775635 352.387970,486.251068 
	C353.074707,491.643951 356.995300,496.354004 361.663177,497.535370 
	C367.872437,499.106781 373.882874,497.115479 377.270355,492.364655 
	C380.636963,487.643097 380.675049,479.440765 377.353638,474.410400 
	C374.464447,470.034637 368.553253,467.535522 363.436371,468.526398 
	C357.292786,469.716125 353.690460,473.726410 352.253357,481.770142 
z"/>
<path fill="#000000" opacity="1.000000" stroke="none" 
	d="
M611.977295,488.569641 
	C610.973572,474.735718 614.472412,467.298859 623.605347,463.223145 
	C633.519897,458.798615 645.725769,461.732941 650.821167,469.765930 
	C656.824951,479.231140 655.181885,493.875519 647.385803,500.386292 
	C639.272522,507.162048 625.967651,506.814209 617.993530,499.712158 
	C614.724609,496.800812 613.216675,493.010681 611.977295,488.569641 
M628.768311,469.146332 
	C620.494690,472.625397 617.280579,480.296844 620.382874,489.160797 
	C622.870667,496.269226 629.507507,499.521149 637.275146,497.437775 
	C644.311279,495.550598 648.316528,487.775146 646.576599,479.380707 
	C645.005798,471.801666 637.961975,467.475037 628.768311,469.146332 
z"/>
<path fill="#000000" opacity="1.000000" stroke="none" 
	d="
M327.226898,467.820374 
	C331.607117,473.463196 333.612610,479.508301 332.510773,486.236938 
	C330.245605,500.069611 319.258514,507.775055 306.407471,504.771881 
	C293.488129,501.752716 286.867310,490.098358 290.461151,476.702179 
	C294.701782,460.895203 314.304321,455.977234 327.226898,467.820374 
M309.759186,497.838928 
	C312.582367,497.840546 315.373199,497.872803 317.984985,496.414368 
	C323.857330,493.135071 326.461975,485.484833 324.100922,478.123199 
	C321.977661,471.503021 315.589050,467.368439 309.147125,468.445404 
	C301.961426,469.646759 297.442017,475.165070 297.330627,482.873566 
	C297.210724,491.175629 301.142029,496.230560 309.759186,497.838928 
z"/>
<path fill="#000000" opacity="1.000000" stroke="none" 
	d="
M436.931427,489.857178 
	C436.853180,493.160431 436.819550,495.988464 436.679901,498.811218 
	C436.587830,500.672394 437.731415,503.168365 435.120453,504.011108 
	C432.333344,504.910675 430.052643,503.824219 428.194397,501.402008 
	C422.830688,494.410431 417.324005,487.528107 411.835327,480.633209 
	C411.053894,479.651550 410.601227,478.226929 408.356934,477.993561 
	C408.356934,485.025787 408.403076,491.946747 408.331482,498.866486 
	C408.306946,501.238525 408.966553,504.225464 404.995605,504.212036 
	C401.011353,504.198547 401.720428,501.195801 401.706970,498.836975 
	C401.646301,488.191711 401.649475,477.545776 401.701447,466.900421 
	C401.709808,465.188690 401.084869,462.976196 403.562500,462.317017 
	C405.709015,461.745850 407.385101,462.644440 408.765686,464.390045 
	C414.233093,471.303009 419.753662,478.174042 425.276093,485.043274 
	C426.379547,486.415833 427.153656,488.158173 429.673828,488.957306 
	C429.673828,481.575653 429.683075,474.466370 429.668945,467.357147 
	C429.663818,464.784271 429.477264,462.122559 433.242737,462.166016 
	C436.920868,462.208466 436.875854,464.841278 436.882874,467.423279 
	C436.902740,474.742096 436.915466,482.060913 436.931427,489.857178 
z"/>
<path fill="#000000" opacity="1.000000" stroke="none" 
	d="
M155.691833,492.810913 
	C154.694336,500.322296 151.634155,503.539734 144.399704,504.124908 
	C139.441696,504.525970 134.427429,504.212891 129.438690,504.259613 
	C126.638451,504.285858 125.669487,502.804810 125.679123,500.182739 
	C125.720688,488.871643 125.739517,477.560059 125.668106,466.249268 
	C125.650719,463.496216 126.899178,462.173309 129.508545,462.228485 
	C135.141312,462.347626 140.850647,461.921539 146.334839,463.566376 
	C153.603806,465.746552 156.549713,472.684296 152.941391,479.368805 
	C151.841263,481.406830 151.356186,482.845062 153.226776,484.559357 
	C155.526886,486.667297 155.552048,489.583832 155.691833,492.810913 
M137.782288,486.259033 
	C132.196976,486.569763 131.874161,487.341553 133.265213,497.138184 
	C134.884354,498.241028 136.753571,497.816498 138.527023,497.804504 
	C145.650925,497.756439 148.681076,495.919342 148.579971,491.826355 
	C148.485916,488.018677 145.529861,486.364624 137.782288,486.259033 
M144.719711,478.491028 
	C147.837448,475.673218 147.178268,472.930206 144.320679,470.521606 
	C142.123413,468.669617 134.518860,468.677063 133.583008,470.523956 
	C132.341782,472.973511 132.540436,475.754608 133.442780,478.260071 
	C134.226761,480.436951 136.479645,479.840149 138.228088,479.893799 
	C140.213928,479.954834 142.218353,479.911316 144.719711,478.491028 
z"/>
<path fill="#000000" opacity="1.000000" stroke="none" 
	d="
M497.140839,503.658752 
	C491.109467,504.794434 485.443848,504.115631 479.801849,504.269165 
	C476.986206,504.345795 475.978973,502.787689 475.986542,500.218079 
	C476.019409,489.073486 476.050507,477.928894 476.064911,466.784302 
	C476.068848,463.743805 477.506775,462.014557 480.585510,462.161072 
	C486.218781,462.429169 491.968384,462.260132 497.444916,463.375702 
	C507.337402,465.390839 512.399536,472.657257 512.453247,483.468414 
	C512.508545,494.598175 508.028564,500.631836 497.140839,503.658752 
M491.972290,469.397095 
	C490.812012,469.374176 489.642487,469.436859 488.493134,469.312683 
	C484.667084,468.899261 483.090179,470.436432 483.229828,474.396576 
	C483.457489,480.854858 483.284485,487.326813 483.308136,493.792938 
	C483.314209,495.456665 483.292206,497.004883 485.494141,497.657593 
	C495.350372,500.579102 504.762451,493.741699 504.836151,483.492767 
	C504.891571,475.792816 501.536865,471.884491 491.972290,469.397095 
z"/>
<path fill="#000000" opacity="1.000000" stroke="none" 
	d="
M692.203369,486.784302 
	C689.145447,488.461548 690.469971,490.152100 691.696106,491.832336 
	C694.410645,495.552124 697.128479,499.269531 700.190125,503.460297 
	C695.062378,505.013000 691.316406,504.872498 688.577515,500.264191 
	C686.795349,497.265686 684.576904,494.527161 682.566528,491.663361 
	C681.291626,489.847473 679.607178,488.971527 677.400330,489.538605 
	C674.945007,490.169495 675.367065,492.265625 675.306458,494.038300 
	C675.238220,496.036011 675.247925,498.038452 675.291748,500.037354 
	C675.345337,502.482941 674.850647,504.263123 671.792725,504.284729 
	C668.927185,504.304962 667.962891,502.912048 667.969971,500.296326 
	C668.000183,489.130341 668.026794,477.964142 667.978577,466.798340 
	C667.965027,463.666687 669.416077,462.228516 672.470459,462.132721 
	C677.137451,461.986328 681.808838,461.770721 686.405334,462.841492 
	C691.406311,464.006500 695.597473,466.425140 696.806763,471.754242 
	C698.075989,477.347107 697.725586,482.762512 692.203369,486.784302 
M686.814331,481.571869 
	C689.505737,479.504669 690.588562,476.757812 689.252197,473.645294 
	C687.946899,470.605225 685.140259,469.293335 681.919617,469.424408 
	C679.641296,469.517120 676.674866,468.163177 675.480957,471.553528 
	C672.646790,479.601746 675.895447,483.682404 684.257263,482.605316 
	C684.900269,482.522491 685.512085,482.197784 686.814331,481.571869 
z"/>
<path fill="#000000" opacity="1.000000" stroke="none" 
	d="
M191.109573,468.947205 
	C196.037796,480.540222 200.813782,491.786438 205.693085,503.275879 
	C200.675034,505.052551 197.433212,504.742950 196.221451,499.649902 
	C196.070892,499.017120 195.771347,498.370544 195.379562,497.852295 
	C192.675674,494.276154 176.059036,495.782471 174.396042,499.956482 
	C172.761200,504.059814 170.308823,505.251221 166.358688,503.768616 
	C165.115051,502.176819 166.126541,500.824066 166.669403,499.508789 
	C170.915802,489.220337 175.128723,478.916687 179.536591,468.697327 
	C180.623703,466.176941 180.703217,462.703461 184.933823,462.491425 
	C189.529221,462.261078 189.422394,466.118103 191.109573,468.947205 
M179.796036,487.524078 
	C183.418060,490.046539 187.154129,488.745667 191.492966,488.248962 
	C189.428543,483.246063 187.594833,478.802246 185.265579,473.157562 
	C183.108185,478.557556 181.458450,482.686859 179.796036,487.524078 
z"/>
<path fill="#000000" opacity="1.000000" stroke="none" 
	d="
M542.939941,461.996033 
	C545.093628,461.984924 546.758789,461.978363 548.423889,461.962860 
	C551.061829,461.938263 552.395752,463.078369 552.359375,465.878876 
	C552.324768,468.540100 550.935669,469.334747 548.566833,469.313202 
	C544.903625,469.279877 541.234497,469.451111 537.577454,469.301422 
	C533.280579,469.125519 533.406372,471.900513 533.295349,474.921051 
	C533.177185,478.133698 533.937317,480.069183 537.658936,479.838745 
	C540.477844,479.664215 543.319275,479.789276 546.148315,479.865448 
	C548.164062,479.919678 549.127075,481.041687 549.108887,483.074341 
	C549.090698,485.104767 548.117249,486.194946 546.094971,486.238464 
	C543.098633,486.303009 540.100952,486.308319 537.103882,486.332458 
	C532.129150,486.372528 533.598938,490.145203 533.360352,492.869995 
	C533.121582,495.596588 533.403503,497.889160 537.140076,497.758057 
	C541.297363,497.612244 545.464844,497.766357 549.627930,497.777252 
	C552.019043,497.783539 553.376099,498.716248 553.267395,501.356049 
	C553.161255,503.932739 551.471680,504.250183 549.507263,504.257874 
	C543.012695,504.283356 536.517273,504.229095 530.023743,504.318054 
	C527.160400,504.357269 526.142883,502.795380 526.141602,500.291016 
	C526.136047,488.968811 526.179993,477.646606 526.207092,466.324402 
	C526.214661,463.152496 527.934998,461.912323 530.961121,461.965759 
	C534.790222,462.033386 538.621216,461.991272 542.939941,461.996033 
z"/>
<path fill="#000000" opacity="1.000000" stroke="none" 
	d="
M581.917969,468.800385 
	C572.465210,472.751068 568.963501,480.907166 572.491638,490.027924 
	C575.163452,496.935181 584.377136,500.220245 591.506836,496.795288 
	C592.104065,496.508423 592.700745,496.181946 593.217651,495.772644 
	C595.684082,493.819763 598.073975,493.313293 599.835083,496.505951 
	C601.692261,499.872833 598.703247,501.074310 596.656799,502.084930 
	C588.210876,506.255951 579.719849,506.999054 571.721191,501.013733 
	C564.124451,495.329193 562.908752,487.287445 564.290161,478.626007 
	C567.130676,460.816376 586.145386,458.164581 596.767395,464.539764 
	C598.783142,465.749573 601.501282,467.156036 599.292297,470.366150 
	C597.948059,472.319641 596.510071,473.534393 593.985535,471.669617 
	C590.552307,469.133667 586.688538,467.699615 581.917969,468.800385 
z"/>
<path fill="#000000" opacity="1.000000" stroke="none" 
	d="
M225.259109,477.010132 
	C225.255661,482.661346 225.420441,487.822571 225.190552,492.966187 
	C225.021835,496.741272 226.592041,498.024536 230.184265,497.785370 
	C232.996552,497.598175 235.833466,497.773254 238.659332,497.800446 
	C240.743591,497.820465 242.155121,498.505127 242.209503,500.946472 
	C242.262848,503.340881 241.048157,504.241730 238.868912,504.244110 
	C232.884369,504.250702 226.899673,504.215668 220.915375,504.253326 
	C218.160980,504.270630 216.991653,502.832245 216.989944,500.246521 
	C216.982330,488.776154 216.999969,477.305817 216.991348,465.835449 
	C216.989182,462.944763 218.747498,462.168274 221.222672,462.191895 
	C223.765350,462.216187 225.314194,463.197113 225.253708,466.039490 
	C225.179459,469.528900 225.250092,473.021393 225.259109,477.010132 
z"/>
<path fill="#000000" opacity="1.000000" stroke="none" 
	d="
M280.292114,498.598022 
	C282.024841,502.396759 281.142578,504.333679 277.070129,504.292114 
	C271.421844,504.234406 265.771484,504.210724 260.124146,504.303375 
	C257.135437,504.352417 255.922440,502.967957 255.927124,500.098053 
	C255.945251,488.966644 255.934662,477.835083 255.899002,466.703705 
	C255.890289,463.984528 256.763397,462.208984 259.844147,462.179688 
	C263.268463,462.147156 263.344971,464.419556 263.336365,466.911865 
	C263.306488,475.551300 263.458374,484.193848 263.264923,492.829010 
	C263.184052,496.438080 264.287323,497.915527 268.063965,497.825653 
	C272.013336,497.731689 276.030823,497.174652 280.292114,498.598022 
z"/>
</svg>